<?xml version="1.0" standalone="no"?>
<!DOCTYPE svg PUBLIC "-//W3C//DTD SVG 20010904//EN"
 "http://www.w3.org/TR/2001/REC-SVG-20010904/DTD/svg10.dtd">
<svg version="1.0" xmlns="http://www.w3.org/2000/svg"
 width="250.000000pt" height="100.000000pt" viewBox="0 0 250.000000 100.000000"
 preserveAspectRatio="xMidYMid meet">
<metadata>
Created by potrace 1.11, written by Peter Selinger 2001-2013
</metadata>
<g transform="translate(0.000000,100.000000) scale(0.100000,-0.100000)"
fill="#000000" stroke="none">
<path d="M441 821 l-81 -99 38 -19 c20 -11 51 -38 67 -61 17 -22 38 -41 47
-41 10 -1 32 -14 50 -30 25 -22 32 -37 32 -64 0 -38 -24 -74 -60 -87 -20 -8
-86 -125 -76 -135 9 -8 61 -6 106 6 84 21 147 95 161 190 17 113 -54 208 -172
234 -18 3 -33 9 -33 11 0 3 31 42 68 87 96 115 95 107 9 107 l-75 0 -81 -99z"/>
<path d="M175 693 c-81 -42 -124 -114 -125 -205 0 -65 12 -103 43 -136 27 -30
85 -60 133 -70 l36 -7 -76 -94 c-42 -51 -76 -97 -76 -102 0 -6 31 -9 72 -7
l71 3 94 115 c122 150 148 203 148 295 -1 99 -38 166 -117 206 -47 24 -159 25
-203 2z m146 -123 c10 -6 26 -24 34 -41 13 -25 14 -37 5 -65 -15 -43 -44 -64
-91 -64 -29 0 -43 7 -63 31 -33 39 -33 79 0 118 28 33 75 42 115 21z"/>
<path d="M280 503 c0 -32 5 -65 10 -73 9 -13 14 -11 35 13 30 34 31 56 4 91
-34 44 -49 34 -49 -31z"/>
<path d="M2140 628 c0 -76 -1 -80 -17 -66 -66 58 -171 6 -187 -92 -15 -94 38
-170 118 -170 29 0 52 7 70 21 l26 20 0 -20 c0 -17 6 -21 30 -21 l30 0 0 205
0 205 -35 0 -35 0 0 -82z m-20 -118 c30 -30 28 -103 -5 -135 -30 -31 -52 -31
-82 -3 -18 17 -23 32 -23 70 0 55 24 88 65 88 14 0 34 -9 45 -20z"/>
<path d="M863 683 c-10 -3 -13 -52 -13 -194 l0 -189 80 0 c131 0 190 37 190
121 0 23 -9 40 -33 63 l-34 32 22 16 c50 38 37 109 -25 140 -34 17 -155 24
-187 11z m141 -52 c25 -10 35 -33 28 -62 -5 -21 -44 -39 -82 -39 -29 0 -30 1
-30 48 0 27 3 52 7 55 9 10 48 9 77 -2z m28 -181 c24 -30 23 -46 -7 -75 -18
-18 -35 -25 -65 -25 l-40 0 0 66 0 67 47 -6 c32 -3 53 -12 65 -27z"/>
<path d="M1252 583 c-35 -7 -89 -66 -96 -108 -13 -68 13 -134 65 -161 15 -7
51 -14 79 -14 43 0 55 5 86 33 81 74 55 219 -44 247 -38 10 -50 11 -90 3z m93
-76 c27 -38 15 -126 -19 -149 -23 -16 -65 -8 -80 14 -18 26 -21 100 -5 129 21
41 78 44 104 6z"/>
<path d="M1520 577 c-26 -10 -34 -17 -32 -32 5 -26 2 -25 50 -13 35 9 46 8 67
-6 38 -25 32 -46 -12 -46 -50 0 -105 -28 -121 -63 -17 -35 -7 -82 21 -102 28
-20 91 -19 122 1 23 15 25 15 25 0 0 -11 9 -16 30 -16 l30 0 0 103 c0 117 -10
144 -60 169 -40 21 -71 22 -120 5z m110 -166 c0 -35 -23 -61 -54 -61 -52 0
-58 60 -8 79 49 17 62 14 62 -18z"/>
<path d="M1850 562 l-30 -30 0 24 c0 20 -5 24 -30 24 l-30 0 0 -140 0 -140 35
0 35 0 0 90 c0 100 15 130 66 130 23 0 25 3 22 32 -4 44 -30 47 -68 10z"/>
<path d="M2310 573 c-74 -38 -60 -116 26 -154 37 -15 45 -23 42 -41 -3 -21 -8
-23 -60 -22 -54 1 -58 0 -58 -21 0 -28 17 -35 86 -35 68 0 104 29 104 83 0 39
-26 67 -82 91 -21 8 -38 22 -38 30 0 24 33 37 68 27 26 -8 31 -6 36 12 7 28
-1 35 -49 42 -28 4 -50 1 -75 -12z"/>
</g>
</svg>
